<svg width="48" height="48" viewBox="0 0 48 48" fill="none" xmlns="http://www.w3.org/2000/svg">
    <path d="M41.9741 6.02688C39.2767 3.32947 34.9033 3.3296 32.2061 6.02717L8.03755 30.1986C7.27584 30.9604 6.73303 31.913 6.46599 32.9567L4.03904 42.4417C3.9296 42.8694 4.05389 43.3231 4.36603 43.6353C4.67816 43.9476 5.13183 44.072 5.55956 43.9626L15.0458 41.5381C16.0904 41.2711 17.0439 40.7279 17.8062 39.9655L41.9744 15.7943C44.6714 13.097 44.6713 8.72406 41.9741 6.02688ZM33.9739 7.79483C35.6949 6.07367 38.4853 6.07359 40.2064 7.79464C41.9273 9.51556 41.9274 12.3057 40.2066 14.0267L37.9999 16.2336L31.7676 10.0014L33.9739 7.79483ZM30 11.7693L36.2322 18.0015L16.0383 38.1978C15.5933 38.6429 15.0366 38.9601 14.4268 39.1159L6.9838 41.0183L8.88796 33.5764C9.04386 32.9671 9.36075 32.411 9.80542 31.9663L30 11.7693Z" fill="#FFFFFF"/>
</svg>
